{
  "accessors": [
    {
      "bufferView": 2,
      "componentType": 5126,
      "count": 65532,
      "max": [
        9.221918106079102,
        8.087406158447266,
        3.59968900680542
      ],
      "min": [
        -8.89736270904541,
        -9.745759963989258,
        0.10335200279951096
      ],
      "type": "VEC3"
    },
    {
      "bufferView": 2,
      "byteOffset": 786384,
      "componentType": 5126,
      "count": 65532,
      "max": [
        0.9999979734420776,
        0.9999978542327881,
        0.9999969005584717
      ],
      "min": [
        -0.9999992847442627,
        -0.9999246597290039,
        -1.0
      ],
      "type": "VEC3"
    },
    {
      "bufferView": 3,
      "componentType": 5126,
      "count": 65532,
      "max": [
        0.9997534155845642,
        0.9999991059303284,
        0.9999927878379822,
        1.0
      ],
      "min": [
        -0.9999998211860657,
        -0.9999492764472961,
        -0.9999986290931702,
        -1.0
      ],
      "type": "VEC4"
    },
    {
      "bufferView": 1,
      "componentType": 5126,
      "count": 65532,
      "max": [
        0.9913960099220276,
        1.0
      ],
      "min": [
        0.0005430000019259751,
        4.8000001697801054e-05
      ],
      "type": "VEC2"
    },
    {
      "bufferView": 0,
      "componentType": 5125,
      "count": 339279,
      "type": "SCALAR"
    },
    {
      "bufferView": 2,
      "byteOffset": 1572768,
      "componentType": 5126,
      "count": 65532,
      "max": [
        9.21174144744873,
        7.263278961181641,
        2.534912109375
      ],
      "min": [
        -0.5182899832725525,
        -9.841999053955078,
        0.11809899657964706
      ],
      "type": "VEC3"
    },
    {
      "bufferView": 2,
      "byteOffset": 2359152,
      "componentType": 5126,
      "count": 65532,
      "max": [
        0.9999979734420776,
        0.9993786811828613,
        0.9999954700469971
      ],
      "min": [
        -0.9948247671127319,
        -0.9999979734420776,
        -1.0
      ],
      "type": "VEC3"
    },
    {
      "bufferView": 3,
      "byteOffset": 1048512,
      "componentType": 5126,
      "count": 65532,
      "max": [
        0.9993987679481506,
        0.9999992251396179,
        0.9999485611915588,
        1.0
      ],
      "min": [
        -0.9999998211860657,
        -0.9999803900718689,
        -0.9998756647109985,
        -1.0
      ],
      "type": "VEC4"
    },
    {
      "bufferView": 1,
      "byteOffset": 524256,
      "componentType": 5126,
      "count": 65532,
      "max": [
        0.9811310172080994,
        0.9828460216522217
      ],
      "min": [
        0.002498999936506152,
        0.002007999923080206
      ],
      "type": "VEC2"
    },
    {
      "bufferView": 0,
      "byteOffset": 1357116,
      "componentType": 5125,
      "count": 344901,
      "type": "SCALAR"
    },
    {
      "bufferView": 2,
      "byteOffset": 3145536,
      "componentType": 5126,
      "count": 65532,
      "max": [
        7.8049798011779785,
        7.02330207824707,
        3.4598848819732666
      ],
      "min": [
        -2.409691095352173,
        -9.82938003540039,
        0.11229699850082397
      ],
      "type": "VEC3"
    },
    {
      "bufferView": 2,
      "byteOffset": 3931920,
      "componentType": 5126,
      "count": 65532,
      "max": [
        0.9996342062950134,
        0.9999182224273682,
        0.999997615814209
      ],
      "min": [
        -0.9994348287582397,
        -0.999995231628418,
        -1.0
      ],
      "type": "VEC3"
    },
    {
      "bufferView": 3,
      "byteOffset": 2097024,
      "componentType": 5126,
      "count": 65532,
      "max": [
        0.9990447759628296,
        0.999999463558197,
        0.9999485611915588,
        1.0
      ],
      "min": [
        -0.9999985098838806,
        -0.9999950528144836,
        -0.9997331500053406,
        -1.0
      ],
      "type": "VEC4"
    },
    {
      "bufferView": 1,
      "byteOffset": 1048512,
      "componentType": 5126,
      "count": 65532,
      "max": [
        0.9868450164794922,
        0.9985830187797546
      ],
      "min": [
        0.0026320000179111958,
        5.2999999752501026e-05
      ],
      "type": "VEC2"
    },
    {
      "bufferView": 0,
      "byteOffset": 2736720,
      "componentType": 5125,
      "count": 336597,
      "type": "SCALAR"
    },
    {
      "bufferView": 2,
      "byteOffset": 4718304,
      "componentType": 5126,
      "count": 65532,
      "max": [
        5.748604774475098,
        8.117813110351563,
        3.6558189392089844
      ],
      "min": [
        -4.694320201873779,
        -9.700422286987305,
        0.10385499894618988
      ],
      "type": "VEC3"
    },
    {
      "bufferView": 2,
      "byteOffset": 5504688,
      "componentType": 5126,
      "count": 65532,
      "max": [
        0.9996199011802673,
        0.9999992847442627,
        0.9999982118606567
      ],
      "min": [
        -0.9998257756233215,
        -0.99998939037323,
        -1.0
      ],
      "type": "VEC3"
    },
    {
      "bufferView": 3,
      "byteOffset": 3145536,
      "componentType": 5126,
      "count": 65532,
      "max": [
        0.9999852776527405,
        0.9999940991401672,
        0.9992982745170593,
        1.0
      ],
      "min": [
        -0.9999960660934448,
        -0.9999004006385803,
        -0.9999913573265076,
        -1.0
      ],
      "type": "VEC4"
    },
    {
      "bufferView": 1,
      "byteOffset": 1572768,
      "componentType": 5126,
      "count": 65532,
      "max": [
        0.9914730191230774,
        0.9980959892272949
      ],
      "min": [
        0.007689000107347965,
        0.0002579999854788184
      ],
      "type": "VEC2"
    },
    {
      "bufferView": 0,
      "byteOffset": 4083108,
      "componentType": 5125,
      "count": 333828,
      "type": "SCALAR"
    },
    {
      "bufferView": 2,
      "byteOffset": 6291072,
      "componentType": 5126,
      "count": 65532,
      "max": [
        1.9746609926223755,
        8.009017944335938,
        3.7020421028137207
      ],
      "min": [
        -8.084634780883789,
        -9.194217681884766,
        0.09427999705076218
      ],
      "type": "VEC3"
    },
    {
      "bufferView": 2,
      "byteOffset": 7077456,
      "componentType": 5126,
      "count": 65532,
      "max": [
        0.9999728202819824,
        0.9998020529747009,
        0.9999998807907104
      ],
      "min": [
        -0.9992027282714844,
        -0.999904990196228,
        -1.0
      ],
      "type": "VEC3"
    },
    {
      "bufferView": 3,
      "byteOffset": 4194048,
      "componentType": 5126,
      "count": 65532,
      "max": [
        0.9998648762702942,
        0.9999994039535522,
        0.9999170899391174,
        1.0
      ],
      "min": [
        -0.9999739527702332,
        -0.9999397993087769,
        -0.9999043345451355,
        -1.0
      ],
      "type": "VEC4"
    },
    {
      "bufferView": 1,
      "byteOffset": 2097024,
      "componentType": 5126,
      "count": 65532,
      "max": [
        0.9870679974555969,
        0.997979998588562
      ],
      "min": [
        0.0011500000255182385,
        3.400000059627928e-05
      ],
      "type": "VEC2"
    },
    {
      "bufferView": 0,
      "byteOffset": 5418420,
      "componentType": 5125,
      "count": 350469,
      "type": "SCALAR"
    },
    {
      "bufferView": 2,
      "byteOffset": 7863840,
      "componentType": 5126,
      "count": 65532,
      "max": [
        -1.0905640125274658,
        7.671358108520508,
        3.3526229858398438
      ],
      "min": [
        -8.889862060546875,
        -5.545101165771484,
        0.10097099840641022
      ],
      "type": "VEC3"
    },
    {
      "bufferView": 2,
      "byteOffset": 8650224,
      "componentType": 5126,
      "count": 65532,
      "max": [
        0.999743640422821,
        0.9999213218688965,
        0.9999960660934448
      ],
      "min": [
        -0.9999966621398926,
        -0.998580813407898,
        -1.0
      ],
      "type": "VEC3"
    },
    {
      "bufferView": 3,
      "byteOffset": 5242560,
      "componentType": 5126,
      "count": 65532,
      "max": [
        0.9999818801879883,
        0.9999995827674866,
        0.9995814561843872,
        1.0
      ],
      "min": [
        -0.9999998807907104,
        -0.9999971389770508,
        -0.9999960064888,
        -1.0
      ],
      "type": "VEC4"
    },
    {
      "bufferView": 1,
      "byteOffset": 2621280,
      "componentType": 5126,
      "count": 65532,
      "max": [
        0.9984920024871826,
        0.9985949993133545
      ],
      "min": [
        0.003621000098064542,
        9.200000204145908e-05
      ],
      "type": "VEC2"
    },
    {
      "bufferView": 0,
      "byteOffset": 6820296,
      "componentType": 5125,
      "count": 339459,
      "type": "SCALAR"
    },
    {
      "bufferView": 2,
      "byteOffset": 9436608,
      "componentType": 5126,
      "count": 65532,
      "max": [
        3.00913405418396,
        8.093816757202148,
        3.7051849365234375
      ],
      "min": [
        -8.877009391784668,
        -8.772882461547852,
        0.10335200279951096
      ],
      "type": "VEC3"
    },
    {
      "bufferView": 2,
      "byteOffset": 10222992,
      "componentType": 5126,
      "count": 65532,
      "max": [
        0.9995229840278625,
        0.9999818801879883,
        0.9999979734420776
      ],
      "min": [
        -0.9999973773956299,
        -0.9998959302902222,
        -1.0
      ],
      "type": "VEC3"
    },
    {
      "bufferView": 3,
      "byteOffset": 6291072,
      "componentType": 5126,
      "count": 65532,
      "max": [
        1.0,
        0.9999990463256836,
        0.9995694160461426,
        1.0
      ],
      "min": [
        -0.9997202754020691,
        -0.9999918937683105,
        -0.9999956488609314,
        -1.0
      ],
      "type": "VEC4"
    },
    {
      "bufferView": 1,
      "byteOffset": 3145536,
      "componentType": 5126,
      "count": 65532,
      "max": [
        0.9901670217514038,
        0.9999790191650391
      ],
      "min": [
        0.0014090000186115503,
        0.0011289999820291996
      ],
      "type": "VEC2"
    },
    {
      "bufferView": 0,
      "byteOffset": 8178132,
      "componentType": 5125,
      "count": 307299,
      "type": "SCALAR"
    },
    {
      "bufferView": 2,
      "byteOffset": 11009376,
      "componentType": 5126,
      "count": 26613,
      "max": [
        4.604362964630127,
        8.075851440429688,
        3.2521400451660156
      ],
      "min": [
        -5.637771129608154,
        -9.417732238769531,
        0.10752099752426147
      ],
      "type": "VEC3"
    },
    {
      "bufferView": 2,
      "byteOffset": 11328732,
      "componentType": 5126,
      "count": 26613,
      "max": [
        0.9987199306488037,
        0.9999860525131226,
        0.9999979734420776
      ],
      "min": [
        -0.9998257756233215,
        -0.99909907579422,
        -1.0
      ],
      "type": "VEC3"
    },
    {
      "bufferView": 3,
      "byteOffset": 7339584,
      "componentType": 5126,
      "count": 26613,
      "max": [
        0.9997565746307373,
        0.9997206330299377,
        0.9997249245643616,
        1.0
      ],
      "min": [
        -0.9999899864196777,
        -0.9999234676361084,
        -0.9994897842407227,
        -1.0
      ],
      "type": "VEC4"
    },
    {
      "bufferView": 1,
      "byteOffset": 3669792,
      "componentType": 5126,
      "count": 26613,
      "max": [
        0.998714029788971,
        0.9926279783248901
      ],
      "min": [
        3.199999991920777e-05,
        0.0004140000091865659
      ],
      "type": "VEC2"
    },
    {
      "bufferView": 0,
      "byteOffset": 9407328,
      "componentType": 5125,
      "count": 94089,
      "type": "SCALAR"
    }
  ],
  "asset": {
    "extras": {
      "author": "Lassi Kaukonen (https://sketchfab.com/thesidekick)",
      "license": "CC-BY-4.0 (http://creativecommons.org/licenses/by/4.0/)",
      "source": "https://sketchfab.com/3d-models/rock-terrain-fa015203576b44dd9743d24d6c34b5e1",
      "title": "Rock terrain"
    },
    "generator": "Sketchfab-12.68.0",
    "version": "2.0"
  },
  "bufferViews": [
    {
      "buffer": 0,
      "byteLength": 9783684,
      "name": "floatBufferViews",
      "target": 34963
    },
    {
      "buffer": 0,
      "byteLength": 3882696,
      "byteOffset": 9783684,
      "byteStride": 8,
      "name": "floatBufferViews",
      "target": 34962
    },
    {
      "buffer": 0,
      "byteLength": 11648088,
      "byteOffset": 13666380,
      "byteStride": 12,
      "name": "floatBufferViews",
      "target": 34962
    },
    {
      "buffer": 0,
      "byteLength": 7765392,
      "byteOffset": 25314468,
      "byteStride": 16,
      "name": "floatBufferViews",
      "target": 34962
    }
  ],
  "buffers": [
    {
      "byteLength": 33079860,
      "uri": "scene.bin"
    }
  ],
  "images": [
    {
      "uri": "textures/Rock_Terrain_baseColor.jpeg"
    },
    {
      "uri": "textures/Rock_Terrain_metallicRoughness.png"
    },
    {
      "uri": "textures/Rock_Terrain_normal.png"
    }
  ],
  "materials": [
    {
      "doubleSided": true,
      "name": "Rock_Terrain",
      "normalTexture": {
        "index": 2
      },
      "occlusionTexture": {
        "index": 1
      },
      "pbrMetallicRoughness": {
        "baseColorTexture": {
          "index": 0
        },
        "metallicFactor": 0.0,
        "metallicRoughnessTexture": {
          "index": 1
        }
      }
    }
  ],
  "meshes": [
    {
      "name": "Object_0",
      "primitives": [
        {
          "attributes": {
            "NORMAL": 1,
            "POSITION": 0,
            "TANGENT": 2,
            "TEXCOORD_0": 3
          },
          "indices": 4,
          "material": 0,
          "mode": 4
        }
      ]
    },
    {
      "name": "Object_1",
      "primitives": [
        {
          "attributes": {
            "NORMAL": 6,
            "POSITION": 5,
            "TANGENT": 7,
            "TEXCOORD_0": 8
          },
          "indices": 9,
          "material": 0,
          "mode": 4
        }
      ]
    },
    {
      "name": "Object_2",
      "primitives": [
        {
          "attributes": {
            "NORMAL": 11,
            "POSITION": 10,
            "TANGENT": 12,
            "TEXCOORD_0": 13
          },
          "indices": 14,
          "material": 0,
          "mode": 4
        }
      ]
    },
    {
      "name": "Object_3",
      "primitives": [
        {
          "attributes": {
            "NORMAL": 16,
            "POSITION": 15,
            "TANGENT": 17,
            "TEXCOORD_0": 18
          },
          "indices": 19,
          "material": 0,
          "mode": 4
        }
      ]
    },
    {
      "name": "Object_4",
      "primitives": [
        {
          "attributes": {
            "NORMAL": 21,
            "POSITION": 20,
            "TANGENT": 22,
            "TEXCOORD_0": 23
          },
          "indices": 24,
          "material": 0,
          "mode": 4
        }
      ]
    },
    {
      "name": "Object_5",
      "primitives": [
        {
          "attributes": {
            "NORMAL": 26,
            "POSITION": 25,
            "TANGENT": 27,
            "TEXCOORD_0": 28
          },
          "indices": 29,
          "material": 0,
          "mode": 4
        }
      ]
    },
    {
      "name": "Object_6",
      "primitives": [
        {
          "attributes": {
            "NORMAL": 31,
            "POSITION": 30,
            "TANGENT": 32,
            "TEXCOORD_0": 33
          },
          "indices": 34,
          "material": 0,
          "mode": 4
        }
      ]
    },
    {
      "name": "Object_7",
      "primitives": [
        {
          "attributes": {
            "NORMAL": 36,
            "POSITION": 35,
            "TANGENT": 37,
            "TEXCOORD_0": 38
          },
          "indices": 39,
          "material": 0,
          "mode": 4
        }
      ]
    }
  ],
  "nodes": [
    {
      "children": [
        1
      ],
      "matrix": [
        1.0,
        0.0,
        0.0,
        0.0,
        0.0,
        2.220446049250313e-16,
        -1.0,
        0.0,
        0.0,
        1.0,
        2.220446049250313e-16,
        0.0,
        0.0,
        0.0,
        0.0,
        1.0
      ],
      "name": "Sketchfab_model"
    },
    {
      "children": [
        2,
        3,
        4,
        5,
        6,
        7,
        8,
        9
      ],
      "name": "Rock_Terrain_SF.obj.cleaner.materialmerger.gles"
    },
    {
      "mesh": 0,
      "name": "Object_2"
    },
    {
      "mesh": 1,
      "name": "Object_3"
    },
    {
      "mesh": 2,
      "name": "Object_4"
    },
    {
      "mesh": 3,
      "name": "Object_5"
    },
    {
      "mesh": 4,
      "name": "Object_6"
    },
    {
      "mesh": 5,
      "name": "Object_7"
    },
    {
      "mesh": 6,
      "name": "Object_8"
    },
    {
      "mesh": 7,
      "name": "Object_9"
    }
  ],
  "samplers": [
    {
      "magFilter": 9729,
      "minFilter": 9987,
      "wrapS": 10497,
      "wrapT": 10497
    }
  ],
  "scene": 0,
  "scenes": [
    {
      "name": "Sketchfab_Scene",
      "nodes": [
        0
      ]
    }
  ],
  "textures": [
    {
      "sampler": 0,
      "source": 0
    },
    {
      "sampler": 0,
      "source": 1
    },
    {
      "sampler": 0,
      "source": 2
    }
  ]
}
